<?xml version="1.0" encoding="utf-8"?>
<!-- Generator: Adobe Illustrator 17.1.0, SVG Export Plug-In . SVG Version: 6.00 Build 0)  -->
<!DOCTYPE svg PUBLIC "-//W3C//DTD SVG 1.1//EN" "http://www.w3.org/Graphics/SVG/1.1/DTD/svg11.dtd">
<svg version="1.1" id="Layer_2" xmlns="http://www.w3.org/2000/svg" xmlns:xlink="http://www.w3.org/1999/xlink" x="0px" y="0px"
	 viewBox="0 0 266 309" enable-background="new 0 0 266 309" xml:space="preserve">
<g>
	<g>
		<path fill="#010101" d="M35.7,237.4C35.7,237.5,35.7,237.5,35.7,237.4c0,0.1,0,0.2,0,0.3c0,0.1,0.1,0.2,0.1,0.3
			c0.5,1.2,1.5,2.2,2.5,2.6l0.1,0.1c0.1,0,9.7,4.8,23.8,5.2c0.2,0,0.4,0,0.6,0c3.2,0,6.9-0.7,11.9-1.6c7.1-1.3,16.7-3.1,31.6-4.2
			c1.2-0.1,2.3-0.1,3.5-0.1c10.2,0,20,3.3,28,5.9c4.9,1.6,9.3,3.1,12,3.1c1.3,0,2.2-0.3,2.6-1.1c0.5-0.9,1.9-3.5,3.7-6.9
			c0-0.1,0.1-0.2,0.1-0.2c1.2-2.3,2.6-4.9,4-7.5c0.1-0.1,0.1-0.2,0.2-0.3c0.1-0.2,0.2-0.3,0.3-0.5c0.1-0.2,0.3-0.5,0.4-0.7
			c0.2-0.3,0.3-0.6,0.5-0.9c0,0,0-0.1,0.1-0.1c0.2-0.3,0.3-0.6,0.5-0.9c0.1-0.1,0.1-0.3,0.2-0.4c0.1-0.2,0.2-0.5,0.4-0.7
			c0.1-0.2,0.2-0.4,0.3-0.5c0.1-0.2,0.2-0.4,0.3-0.6c0.1-0.2,0.2-0.3,0.3-0.5c0.1-0.2,0.3-0.5,0.4-0.7c0.1-0.1,0.1-0.3,0.2-0.4
			c0.1-0.2,0.2-0.4,0.3-0.7c0.1-0.2,0.2-0.3,0.2-0.4c0.1-0.2,0.2-0.4,0.3-0.6c0.1-0.1,0.1-0.3,0.2-0.4c0.1-0.2,0.2-0.4,0.3-0.7
			c0-0.1,0.1-0.2,0.1-0.2c0.1-0.2,0.2-0.4,0.3-0.6c0.1-0.2,0.2-0.3,0.3-0.5c0.1-0.1,0.1-0.2,0.2-0.3c0.1-0.2,0.2-0.4,0.3-0.6
			c0-0.1,0.1-0.1,0.1-0.2c0.1-0.2,0.2-0.3,0.3-0.5c0-0.1,0.1-0.2,0.1-0.3c0.1-0.2,0.2-0.4,0.3-0.5c0,0,0,0,0-0.1
			c0.1-0.2,0.2-0.4,0.3-0.5c0.2-0.4,0.4-0.8,0.6-1.2c0-0.1,0.1-0.2,0.1-0.3c0.1-0.3,0.2-0.6,0.3-0.9c0-0.1,0.1-0.2,0.1-0.3
			c0.1-0.4,0.2-0.7,0.3-1.1c0-0.1,0-0.2,0-0.2c0.1-0.3,0.1-0.6,0.2-0.9c0-0.1,0-0.2,0-0.3c0-0.3,0.1-0.6,0.1-1c0,0,0-0.1,0-0.1
			c0-0.3,0-0.7,0-1c0-0.1,0-0.2,0-0.2c0-0.3-0.1-0.5-0.1-0.8c0-0.1,0-0.1,0-0.2c-0.1-0.3-0.1-0.6-0.2-0.9c0,0,0-0.1,0-0.1
			c-0.1-0.3-0.2-0.5-0.3-0.8c0-0.1-0.1-0.1-0.1-0.2c-0.1-0.3-0.2-0.5-0.4-0.8c0,0,0,0,0,0c-0.1-0.3-0.3-0.5-0.5-0.8
			c0,0-0.1-0.1-0.1-0.1c-0.1-0.2-0.3-0.4-0.5-0.7c0,0-0.1-0.1-0.1-0.1c-0.4-0.5-0.8-1-1.2-1.4c0,0-0.1-0.1-0.1-0.1
			c-0.4-0.5-0.9-0.9-1.4-1.3c0,0,0,0,0,0c-0.1-0.1-0.3-0.2-0.4-0.3c-0.3-0.2-0.6-0.4-0.9-0.6c-0.6-0.4-1.3-0.8-2.1-1.2
			c-0.4-0.2-0.8-0.4-1.2-0.6c-0.4-0.2-0.8-0.4-1.3-0.6c-0.4-0.2-0.9-0.3-1.4-0.5c-0.5-0.1-1-0.3-1.4-0.4c-0.5-0.1-1-0.2-1.5-0.3
			c-0.5-0.1-1-0.2-1.5-0.3c-1-0.2-2-0.2-3.1-0.3c0,0,0,0,0,0c-0.5,0-1.1,0-1.6,0c-0.5,0-0.9,0-1.4,0.1c-0.5,0-1,0.1-1.4,0.1
			c-0.5,0.1-0.9,0.1-1.4,0.2c-0.9,0.1-1.7,0.3-2.5,0.4c-0.8,0.1-1.5,0.3-2.1,0.5c-0.6,0.1-1.2,0.3-1.6,0.4c-0.9,0.3-1.4,0.4-1.4,0.4
			s0.5-0.2,1.3-0.5c0.4-0.2,0.9-0.4,1.6-0.6c0.6-0.2,1.3-0.5,2.1-0.7c0.8-0.2,1.6-0.5,2.5-0.7c0.4-0.1,0.9-0.2,1.4-0.3
			c0.5-0.1,1-0.2,1.5-0.2c1-0.2,2-0.2,3.1-0.3c0.6,0,1.1,0,1.7,0c0.5,0,1,0,1.5,0.1c0.5,0,1.1,0.1,1.6,0.1c0.5,0.1,1.1,0.1,1.6,0.2
			c0.5,0.1,1.1,0.2,1.6,0.3c0.5,0.1,1,0.3,1.5,0.4c0.1,0,0.1,0,0.2,0l0,0c2.4-24.3,6.4-49.1,8.5-61.9c0,0,0,0,0,0
			c0.1-0.5,0.2-1,0.3-1.5c0,0,0,0,0,0c0.1-0.5,0.2-0.9,0.2-1.4c0,0,0,0,0,0c0.5-2.9,0.9-4.8,1-5.5c0,0,0-0.1,0-0.1
			c0-0.1,0-0.2,0-0.2c0.1-0.7,0.2-1.3,0.2-1.9c0-0.3,0-0.6,0.1-0.9c0-0.3,0-0.6,0.1-0.9c0-0.4,0-0.7,0-1.1c0-0.2,0-0.4,0-0.5
			c0-0.4,0-0.8,0-1.2c0-0.1,0-0.3,0-0.4c0-0.4-0.1-0.8-0.1-1.2c0-0.1,0-0.2,0-0.3c-0.1-0.4-0.1-0.8-0.2-1.1c0-0.1,0-0.1,0-0.2
			c-0.1-0.4-0.2-0.7-0.3-1.1c0-0.1,0-0.1-0.1-0.2c-0.1-0.3-0.3-0.7-0.4-1c0,0,0-0.1-0.1-0.1c-0.2-0.3-0.4-0.6-0.6-1
			c0,0,0-0.1-0.1-0.1c-0.2-0.3-0.4-0.6-0.7-0.9c0,0,0-0.1-0.1-0.1c-0.2-0.3-0.5-0.6-0.8-0.9c0,0-0.1-0.1-0.1-0.1
			c-0.3-0.3-0.6-0.6-0.9-0.8c0,0,0,0-0.1-0.1c-0.3-0.3-0.7-0.5-1.1-0.8c0,0,0,0-0.1-0.1c-0.4-0.3-0.8-0.5-1.2-0.8c0,0,0,0-0.1,0
			c-0.4-0.3-0.9-0.5-1.4-0.8c0,0,0,0,0,0c-0.5-0.3-1-0.5-1.6-0.8l0,0c-0.3-0.2-0.5-0.4-0.8-0.6c-0.3-0.2-0.6-0.3-0.9-0.5l-24.5-9.7
			c-0.8-0.3-1.6-0.4-2.3-0.4c-0.6,0-1.1,0.1-1.7,0.2c-1.7,0.1-3.4,0.5-5,1.4l-53.4,29.6c-2.5,1.4-4.3,3.6-5.2,6.1
			c-1.2,2.5-1.4,5.4-0.5,8.3l11,34.4l7.6,23.7c1.6,4.9,6.1,8,10.9,8c1.2,0,2.3-0.2,3.5-0.6c6-1.9,9.4-8.4,7.4-14.5l-13.1-40.9
			l-2.8-8.7l2.5-1.4c0.9-0.6,2.4-1.5,4.2-2.7c2.1-1.3,4.7-3,7.6-4.6c1.4-0.8,2.8-1.6,4.3-2.4c1.1-0.6,2.2-1.1,3.4-1.7
			c1.1-0.5,2.2-1,3.3-1.5c1.1-0.5,2.2-0.8,3.2-1.2c1-0.3,2-0.6,2.9-0.8c0.9-0.2,1.8-0.4,2.5-0.5c0.8-0.1,1.4-0.3,2-0.3
			c1.1-0.1,1.7-0.2,1.7-0.2s-0.6,0.1-1.7,0.3c-0.5,0.1-1.2,0.3-1.9,0.4c-0.7,0.2-1.6,0.4-2.4,0.7c-0.9,0.3-1.8,0.7-2.8,1
			c-1,0.4-2,0.9-3,1.4c-1,0.5-2.1,1.1-3.2,1.7c-1.1,0.6-2.1,1.2-3.2,1.9c-2.8,1.8-5.5,3.7-7.9,5.4c-1,1.5-2,3-3,4.6l0,0c0,0,0,0,0,0
			c-1.2,1.7-2.3,3.5-3.5,5.3c0,0,0,0,0,0l13.9,43.2c2.4,7.6-1.8,15.8-9.4,18.2c-1.4,0.5-2.9,0.7-4.4,0.7c-6.3,0-11.9-4-13.8-10.1
			l-6.9-21.4c-9.9,14.5-20,29.1-29.1,41.7c0,0,0,0,0,0.1c-3,4.2-5.9,8.2-8.6,12C36.1,234.9,35.7,236.2,35.7,237.4z"/>
	</g>
	<g>
		<g>
			<path fill="#010101" d="M173.9,46.4c-3.2-1.3-6.5-1.9-9.8-1.9c-11,0-20.8,6.6-24.9,16.9c-2.6,6.6-2.5,13.9,0.3,20.5
				c2.8,6.6,8,11.6,14.7,14.2c3.2,1.3,6.5,1.9,9.8,1.9c11,0,20.8-6.6,24.9-16.9C194.3,67.4,187.6,51.8,173.9,46.4z"/>
		</g>
	</g>
	<g>
		<path fill="#010101" d="M239.3,27.6c-4.9-3.6-11.3-2.8-14.5,1.7l-30.1,43.8c-0.2,3.2-0.9,6.3-2.1,9.4
			c-4.5,11.4-15.2,18.9-27.3,19.4l-3.1,2.9c0,0,0,0,0,0c0.6,0.3,1.1,0.5,1.6,0.8c0.3,0.1,0.5,0.3,0.8,0.4c0.3,0.2,0.6,0.3,0.8,0.5
			c0.3,0.2,0.5,0.3,0.7,0.5c0.2,0.2,0.5,0.3,0.7,0.5c0.2,0.2,0.5,0.3,0.7,0.5c0.2,0.2,0.4,0.3,0.6,0.5c0.2,0.2,0.4,0.3,0.6,0.5
			c0.2,0.2,0.4,0.3,0.5,0.5c0.2,0.2,0.4,0.4,0.6,0.6c0.2,0.2,0.3,0.3,0.5,0.5c0.2,0.2,0.4,0.4,0.5,0.6c0.1,0.2,0.3,0.3,0.4,0.5
			c0.2,0.2,0.3,0.4,0.5,0.7c0,0,0,0,0,0.1c0.4,0.6,0.7,1.2,1,1.9c0.1,0.2,0.2,0.4,0.2,0.6c0.1,0.3,0.2,0.5,0.3,0.8
			c0.1,0.2,0.1,0.4,0.2,0.6c0.1,0.3,0.1,0.6,0.2,0.8c0.1,0.2,0.1,0.4,0.1,0.7c0.1,0.3,0.1,0.6,0.2,0.9c0,0.2,0.1,0.5,0.1,0.7
			c0,0.3,0.1,0.6,0.1,0.9c0,0.2,0,0.5,0,0.7c0,0.3,0,0.7,0,1c0,0.2,0,0.5,0,0.7c0,0.4,0,0.8,0,1.2c0,0,0,0,0,0l33.7-31.2
			c0.8-0.7,1.4-1.6,1.9-2.5l32.7-47.6C245.5,37.8,244.1,31.2,239.3,27.6z"/>
	</g>
	<g>
		<path fill="#010101" d="M148.9,252.9c-1.2-0.1-2.5-0.3-4-0.7l-3.4,6.2C144.5,256.8,147,255,148.9,252.9z"/>
	</g>
	<g>
		<path fill="#010101" d="M118.3,244.7c-2.8-0.5-5.6-0.8-8.4-0.8c-1.1,0-2.1,0-3.2,0.1c-11.7,0.9-20.1,2.2-26.6,3.4l-1.6,2.9l-4,7
			c8.3,3.1,20.4,6.7,32.7,7.7l0.9-1.7L118.3,244.7z"/>
	</g>
	<g>
		<path fill="#010101" d="M62.9,249.9c-0.3,0-0.5,0-0.8,0c-3.8-0.1-7.3-0.5-10.4-1.1l-13.8,24.5c-1.3,2.3-1.5,5-0.8,7.6
			s2.5,4.7,4.8,5.9c1.5,0.8,3.1,1.2,4.7,1.2c3.7,0,7.1-2,8.8-5.3l15.2-26.9l4.2-7.5C70,249.3,66.3,249.9,62.9,249.9z"/>
	</g>
	<g>
		<path fill="#010101" d="M122.4,245.5l-10.8,19.8l-2.2,4.1c-1.3,2.3-1.5,5-0.8,7.6c0.8,2.6,2.5,4.7,4.8,5.9
			c1.5,0.8,3.1,1.2,4.7,1.2c3.7,0,7.1-2,8.8-5.3l10-18.2l5-9.2c-1.7-0.5-3.5-1.1-5.4-1.8C132.3,248.2,127.5,246.6,122.4,245.5z"/>
	</g>
</g>
<rect fill="none" width="266" height="309"/>
</svg>
